<svg xmlns="http://www.w3.org/2000/svg" width="16.219" height="30" viewBox="0 0 16.219 30">
  <path id="Facebook_Logo" data-name="Facebook Logo" d="M71.609,730.006,67.718,730c-4.371,0-7.195,2.9-7.195,7.383v3.4H56.612A.612.612,0,0,0,56,741.4v4.932a.612.612,0,0,0,.612.612h3.912v12.445a.612.612,0,0,0,.612.612h5.1a.612.612,0,0,0,.612-.612V746.943h4.573a.612.612,0,0,0,.612-.612l0-4.932a.613.613,0,0,0-.612-.612H66.85V737.9c0-1.387.331-2.091,2.137-2.091h2.621a.611.611,0,0,0,.611-.611v-4.58A.613.613,0,0,0,71.609,730.006Z" transform="translate(-56 -730)" fill="#fff"/>
</svg>
