<svg xmlns="http://www.w3.org/2000/svg" width="265" height="230" viewBox="0 0 265 230">
  <g id="Ilustration" transform="translate(-55 -122)">
    <path id="Vector_3" d="M119.057,351.94s-52.414-15.816-49.974-42.979,24.5-47.99,19.569-92.478,29.778-94.469,77.531-66.279,51.389,40.081,90.179,39.055S315.917,214.974,320,252.581C320,334.927,288.665,329,269.743,352,269.743,352,118.26,350.974,119.057,351.94Z" fill="#f6f6f7"/>
    <g id="Handphone">
      <rect id="Rectangle_1" data-name="Rectangle 1" width="127.087" height="229.675" rx="20" transform="translate(145.473 122)" fill="#57636f"/>
      <rect id="Rectangle_2_2" data-name="Rectangle 2_2" width="114.837" height="217.426" rx="18" transform="translate(151.929 128.125)" fill="#fff"/>
      <g id="Shop_cart_button" data-name="Shop cart_button">
        <g id="Group_2">
          <g id="Group_3">
            <path id="Vector_4" d="M255.667,147.668a.935.935,0,1,0,.936.935A.947.947,0,0,0,255.667,147.668Z" fill="#cddee6"/>
          </g>
        </g>
        <g id="Group_4">
          <g id="Group_5">
            <path id="Vector_5" d="M257.314,143.209c-.018,0-.045-.009-.072-.009h-5.67l-.09-.6a.8.8,0,0,0-.8-.692h-.729a.359.359,0,1,0,0,.719h.729a.1.1,0,0,1,.09.081l.557,3.794a.986.986,0,0,0,.972.836h3.744a1,1,0,0,0,.972-.791l.585-2.922A.355.355,0,0,0,257.314,143.209Z" fill="#cddee6"/>
          </g>
        </g>
        <g id="Group_6">
          <g id="Group_7">
            <path id="Vector_6" d="M253.372,148.558a.93.93,0,0,0-.927-.89.941.941,0,0,0-.9.971.922.922,0,0,0,.918.89h.018A.933.933,0,0,0,253.372,148.558Z" fill="#cddee6"/>
          </g>
        </g>
      </g>
      <path id="Rectangle_3" data-name="Rectangle 3" d="M188.629,128.125H229.97v6.187a3,3,0,0,1-3,3H191.629a3,3,0,0,1-3-3Z" fill="#57636f"/>
      <g id="Others_Button">
        <path id="Vector_1" data-name="Vector 1" d="M157.723,141.9h8.058" fill="none" stroke="#cddee6" stroke-linecap="round" stroke-width="0.5"/>
        <path id="Vector_2" data-name="Vector 2" d="M157.723,145.795h7.97" fill="none" stroke="#cddee6" stroke-linecap="round" stroke-width="0.5"/>
        <path id="Vector_3-2" data-name="Vector 3" d="M157.723,149.561h5.18" fill="none" stroke="#cddee6" stroke-linecap="round" stroke-width="0.5"/>
      </g>
      <g id="Chat_button">
        <path id="Vector_7" d="M242.314,143.366a2.621,2.621,0,0,0-4.971,1.147,2.575,2.575,0,0,0,.25,1.115l-.245,1.226a.223.223,0,0,0,.263.263l1.242-.245a2.609,2.609,0,0,0,.518.181A3.06,3.06,0,0,1,242.314,143.366Z" fill="#cddee6"/>
        <path id="Vector_8" d="M244.732,147.536a2.7,2.7,0,0,0,.112-.276h-.008a2.611,2.611,0,0,0-2.351-3.444h0a2.608,2.608,0,1,0-.125,5.213,2.575,2.575,0,0,0,1.112-.249c1.361.268,1.255.249,1.286.249a.223.223,0,0,0,.219-.267Z" fill="#cddee6"/>
      </g>
      <rect id="Rectangle_4" data-name="Rectangle 4" width="30.623" height="30.623" rx="2" transform="translate(157.723 304.209)" fill="#cddee6"/>
      <rect id="Rectangle_5" data-name="Rectangle 5" width="30.623" height="30.623" rx="2" transform="translate(226.625 304.209)" fill="#cddee6"/>
      <rect id="Rectangle_6" data-name="Rectangle 6" width="30.623" height="30.623" rx="2" transform="translate(191.408 304.209)" fill="#cddee6"/>
      <g id="Next_Icon">
        <circle id="Ellipse_41" data-name="Ellipse 41" cx="5.359" cy="5.359" r="5.359" transform="translate(168.441 286.322) rotate(180)" fill="#cddee6"/>
        <path id="Vector_12" data-name="Vector 12" d="M163.928,278.425l-2.334,2.281,2.334,2.386" fill="none" stroke="#fff" stroke-linecap="round" stroke-linejoin="round" stroke-width="0.5"/>
      </g>
      <g id="Next_Icon_2">
        <circle id="Ellipse_41_2" data-name="Ellipse 41_2" cx="5.359" cy="5.359" r="5.359" transform="translate(246.53 275.604)" fill="#cddee6"/>
        <path id="Vector_12_2" data-name="Vector 12_2" d="M251.043,278.425l2.334,2.281-2.334,2.386" fill="none" stroke="#fff" stroke-linecap="round" stroke-linejoin="round" stroke-width="0.5"/>
      </g>
      <text id="_59_99" data-name="$59,99" transform="translate(185 285.271)" fill="#435865" font-size="13" font-family="Quicksand-Regular, Quicksand"><tspan x="0" y="0">$59,99</tspan></text>
      <g id="Search">
        <rect id="colum_search" data-name="colum search" width="56.553" height="7.556" rx="3.778" transform="translate(173.084 141.955)" fill="#fff" stroke="#cddee6" stroke-width="0.1"/>
        <g id="Group_26" data-name="Group 26">
          <circle id="Ellipse_3" data-name="Ellipse 3" cx="1.566" cy="1.566" r="1.566" transform="translate(225.877 146.718) rotate(180)" fill="none" stroke="#cddee6" stroke-width="0.3"/>
          <path id="Vector_5-2" data-name="Vector 5" d="M223.531,146.593l-.624.936" fill="none" stroke="#cddee6" stroke-linecap="round" stroke-width="0.3"/>
        </g>
      </g>
      <g id="Dress">
        <g id="Group_27" data-name="Group 27">
          <path id="Vector_13" data-name="Vector 13" d="M198.042,181.289h1.634a1,1,0,0,1,1,1v5.995a1.137,1.137,0,0,0,1.175,1.082c3.809-.009,6.809,2.99,7.909,4.641v60.865c-4.542,2.725-11.81,1.817-14.535-1.817-7.267.909-9.993-2.422-11.81-4.542,5.148-10.3,15.807-31.795,17.261-35.429,1.816-4.542,0-9.084-.909-10.9s-2.725-5.451-2.725-9.084V182.287A1,1,0,0,1,198.042,181.289Z" fill="#e4126b"/>
          <path id="Vector_14" data-name="Vector 14" d="M220.57,181.289h-1.634a1,1,0,0,0-1,1v5.995a1.138,1.138,0,0,1-1.176,1.082c-3.809-.009-6.808,2.99-7.908,4.641v60.865c4.542,2.725,11.809,1.817,14.534-1.817,7.268.909,9.993-2.422,11.81-4.542-5.148-10.3-15.807-31.795-17.26-35.429-1.817-4.542,0-9.084.908-10.9s2.726-5.451,2.726-9.084V182.287A1,1,0,0,0,220.57,181.289Z" fill="#e4126b"/>
        </g>
        <g id="Group_36" data-name="Group 36">
          <path id="Polygon_1" data-name="Polygon 1" d="M208.719,172.614a.753.753,0,0,1,.6,0l19.705,8.533a.75.75,0,0,1-.3,1.438H189.311a.75.75,0,0,1-.3-1.438Z" fill="none" stroke="#7a8d9c" stroke-width="0.5"/>
          <path id="Vector_15" data-name="Vector 15" d="M207.307,169.492a1.557,1.557,0,1,1,1.557,1.558v1.427" fill="none" stroke="#7a8d9c" stroke-linecap="round" stroke-width="0.5"/>
        </g>
      </g>
    </g>
    <g id="Human">
      <path id="Vector_89" data-name="Vector 89" d="M114,250c4.5,17.5,9,23.5,9,23.5l4.5,22.5c10.5-.167,32.8-.4,38,0,6.5.5,14.5-7.5,13-18.5S171.713,264.389,160,258c-5.5-3-6.5-10-6.5-15,0-6.325,1-18.417-6.5-23s-14.167-2.333-17.5,0C116,217.5,109.5,232.5,114,250Z" fill="#126881"/>
      <rect id="Rectangle_20" data-name="Rectangle 20" width="22.918" height="33.774" rx="10" transform="translate(121.686 227.372)" fill="#fff2d1"/>
      <path id="Rectangle_21" data-name="Rectangle 21" d="M127.717,245.466H144.6v32.568a8.444,8.444,0,0,1-16.887,0Z" fill="#fff2d1"/>
      <path id="Vector_47" data-name="Vector 47" d="M112.036,328.092V317.236h20.506v9.65c18.093-11.459,28.949-13.872,36.186-15.681s13.872,0,12.063,13.268-15.078,22.919-22.919,24.728-19.9,2.413-38.6,1.809-55.486-8.443-59.708-18.093,0-20.506,13.872-19.3C84.534,314.582,103.793,323.669,112.036,328.092Z" fill="#126881"/>
      <path id="Vector_48" data-name="Vector 48" d="M111.433,272.606a27.005,27.005,0,0,1,16.284-7.841c0,10.856,3.216,16.083,6.031,21.712,0-7.237.6-7.84,6.634-12.062,4.825-3.377,4.222-7.84,4.222-10.253a45.205,45.205,0,0,1,12.665,3.016c5.428,2.412,9.047,7.237,9.65,14.474.483,5.79,1.407,22.115,1.809,29.553-10.132,1.93-28.346,11.66-36.186,16.284l-3.619-6.031-4.222,6.634H112.036v-3.015c-4.222.6-9.047-1.81-9.047-7.841S104.195,279.843,111.433,272.606Z" fill="#ffa771"/>
      <path id="Vector_49" data-name="Vector 49" d="M116.975,285.874h9.985a1,1,0,0,1,.962.729l6.07,21.521a1,1,0,0,1-.962,1.272h-9.984a1,1,0,0,1-.963-.729l-6.07-21.521A1,1,0,0,1,116.975,285.874Z" fill="#364d5b"/>
      <path id="Vector_50" data-name="Vector 50" d="M115.654,299.143l-2.412,2.412c0,5.308,4.825,8.243,7.237,9.047,2.011-.6,6.393-2.051,7.841-3.016a6.7,6.7,0,0,0,2.412-3.618l-3.015-1.81c-1.207,1.005-3.86,3.016-4.825,3.016-1.206,0-1.206-.6-.6-1.206s8.443-4.825,7.84-6.032c-.482-.965-2.613-1.206-3.619-1.206-1.809,1.407-5.548,4.222-6.031,4.222-.6,0-.6-.6,0-1.206.483-.483,3.418-2.614,4.825-3.619l-3.015-1.809-3.619,3.015-1.206-4.221C115.534,293.112,115.453,297.132,115.654,299.143Z" fill="#fff5da"/>
      <path id="Vector_51" data-name="Vector 51" d="M86.7,320.252l34.377,18.093" fill="none" stroke="#fff" stroke-width="0.1"/>
      <path id="Vector_52" data-name="Vector 52" d="M127.114,335.933a22.253,22.253,0,0,1,7.84-2.413c4.825-.6,7.84-2.412,12.665-7.237s9.65-10.856,14.475-12.063" fill="none" stroke="#fff" stroke-width="0.1"/>
      <path id="Vector_53" data-name="Vector 53" d="M154.254,267.781c-1.006,0-3.016,1.809-3.016,9.046s2.01,21.27,3.016,27.5" fill="none" stroke="#fff" stroke-width="0.1"/>
      <path id="Vector_54" data-name="Vector 54" d="M115.051,281.049v12.666" fill="none" stroke="#fff" stroke-width="0.1"/>
      <path id="Vector_55" data-name="Vector 55" d="M147.619,267.781c.2,2.814-.241,9.408-3.618,13.268-3.418-1.005-10.253-.482-10.253,9.65" fill="none" stroke="#fff" stroke-width="0.1"/>
      <path id="Vector_56" data-name="Vector 56" d="M126.51,265.971c-1.005,1.006-3.015,4.463-3.015,10.253,1.407-.8,5.232-1.668,6.634,2.413,1.451,4.222,3.461,6.634,3.863,9.047" fill="none" stroke="#fff" stroke-width="0.1"/>
      <path id="Vector_57" data-name="Vector 57" d="M104.8,311.2l8.444-9.65c-.2,2.01.965,6.634,7.237,9.047-.4,2.01-1.688,6.755-3.618,9.65" fill="none" stroke="#fff" stroke-linejoin="round" stroke-width="0.1"/>
      <path id="Vector_58" data-name="Vector 58" d="M122.892,339.551,118.67,351.01a132.759,132.759,0,0,0,28.346,0c.4-1.407.724-4.463-1.206-5.428S129.727,341.16,122.892,339.551Z" fill="#fff2d1"/>
      <path id="Vector_59" data-name="Vector 59" d="M133.748,308.189a16.755,16.755,0,0,1-2.413,6.635c-1.809,2.412-2.412,3.618-2.412,4.825" fill="none" stroke="#fff" stroke-width="0.1"/>
      <path id="Vector_60" data-name="Vector 60" d="M140.778,297.936l1.81,1.81-3.016,7.237a8.444,8.444,0,0,0-3.016-.6h-7.237c-2.412,0-3.016-.6-3.619-1.809a2.891,2.891,0,0,1,0-2.413,12.26,12.26,0,0,1-3.015-3.015c-1.206-1.81.6-2.413,1.206-1.81a33.674,33.674,0,0,0,4.825,3.016c1.206.6,1.809-.6,1.206-1.206s-7.237-3.619-8.443-4.222a1.492,1.492,0,0,1-.6-2.413,2.87,2.87,0,0,1,1.81-.6c.6-1.809,3.015-1.206,3.618-.6a15.777,15.777,0,0,0,4.825,1.809c.6,0,1.81.6,1.81,0s0-.6-1.207-.6-1.809-1.206-1.206-1.809,3.016-.6,4.222-.6,1.206.6,3.016,2.412A16.174,16.174,0,0,1,140.778,297.936Z" fill="#fff5da"/>
      <path id="Vector_61" data-name="Vector 61" d="M160.888,308.189c-2.01-1.206-7-4.1-10.856-6.031a43.331,43.331,0,0,0-7.238-3.015L138.573,310c2.613,1.608,8.2,5.066,9.65,6.031" fill="none" stroke="#fff" stroke-width="0.1"/>
      <path id="Vector_62" data-name="Vector 62" d="M127.114,325.68a22.879,22.879,0,0,0-.6,8.443" fill="none" stroke="#fff" stroke-width="0.1"/>
      <rect id="Rectangle_23" data-name="Rectangle 23" width="1.206" height="1.206" rx="0.603" transform="translate(121.686 287.684)" fill="#e3e3e3"/>
      <path id="Vector_63" data-name="Vector 63" d="M126.755,232.8c4.825,6.273,14.475,7.036,18.7,6.634,0-12.062-8.846-14.273-13.269-13.871-11.1,0-12.263,9.248-11.459,13.871A15.537,15.537,0,0,0,126.755,232.8Z" fill="#126881"/>
      <path id="Vector_64" data-name="Vector 64" d="M125.549,244.862a1.943,1.943,0,0,1,2.814,0" fill="none" stroke="#126881" stroke-linecap="round" stroke-width="0.3"/>
      <path id="Vector_65" data-name="Vector 65" d="M124.343,241.244a3.015,3.015,0,0,1,3.618,0" fill="none" stroke="#126881" stroke-linecap="round" stroke-width="0.3"/>
      <path id="Vector_66" data-name="Vector 66" d="M136.4,241.244a3.015,3.015,0,0,1,3.618,0" fill="none" stroke="#126881" stroke-linecap="round" stroke-width="0.3"/>
      <path id="Vector_67" data-name="Vector 67" d="M136.4,244.862a1.943,1.943,0,0,1,2.814,0" fill="none" stroke="#126881" stroke-linecap="round" stroke-width="0.3"/>
      <path id="Vector_68" data-name="Vector 68" d="M132.183,243.053l-2.661,6.92a1,1,0,0,0,.562,1.287l2.1.84" fill="none" stroke="#126881" stroke-linecap="round" stroke-width="0.3"/>
      <path id="Vector_69" data-name="Vector 69" d="M131.611,255.121c1.206.6,3.619.844,3.619-3.016" fill="none" stroke="#126881" stroke-linecap="round" stroke-width="0.3"/>
    </g>
    <g id="box">
      <rect id="Rectangle_7" data-name="Rectangle 7" width="44.7" height="44.7" transform="translate(240.858 306.821)" fill="#ffd1b5"/>
      <rect id="Rectangle_8_2" data-name="Rectangle 8_2" width="23.366" height="44.7" transform="translate(285.557 306.821)" fill="#d79e7b"/>
      <rect id="Rectangle_11" data-name="Rectangle 11" width="1.016" height="44.7" transform="translate(262.192 306.821)" fill="#d79e7b"/>
      <rect id="Rectangle_9" data-name="Rectangle 9" width="5.08" height="8.127" transform="translate(294.7 306.821)" fill="#ffebde"/>
      <rect id="Rectangle_10" data-name="Rectangle 10" width="5.08" height="8.127" transform="translate(294.7 343.394)" fill="#ffebde"/>
    </g>
    <g id="Shopping_Bag" data-name="Shopping Bag">
      <path id="Vector_9" d="M99.3,321.538a.871.871,0,0,0,.871-.871v-8.7a6.092,6.092,0,1,1,12.184,0v8.7a.87.87,0,1,0,1.741,0v-8.7a7.833,7.833,0,1,0-15.666,0v8.7a.87.87,0,0,0,.87.871Z" fill="#fed883"/>
      <path id="Vector_10" d="M100.531,352h29.592l-1.741-34.814h-26.11Z" fill="#ff819f"/>
      <path id="Vector_11" d="M93.568,352h6.963l1.741-34.814H95.309Z" fill="#f55f84"/>
      <path id="Vector_12-2" data-name="Vector_12" d="M79.643,352h6.963l.109-1.407h0l1.632-21.221H81.384l-1.6,20.855h0Z" fill="#55b7d6"/>
      <path id="Vector_13-2" data-name="Vector_13" d="M86.606,352h22.629l-1.741-22.629H88.346Z" fill="#7bcfe9"/>
      <path id="Vector_14-2" data-name="Vector_14" d="M97.05,345.908h1.741a4.357,4.357,0,0,0,4.351-4.352v-6.963a.87.87,0,0,0-1.74,0v6.963a2.615,2.615,0,0,1-2.611,2.611H97.05a2.615,2.615,0,0,1-2.611-2.611v-6.963a.87.87,0,0,0-1.741,0v6.963a4.357,4.357,0,0,0,4.352,4.352Z" fill="#fff"/>
      <path id="Vector_15-2" data-name="Vector_15" d="M121.42,321.538a.871.871,0,0,0,.87-.871v-8.7a7.833,7.833,0,1,0-15.666,0v8.7a.87.87,0,1,0,1.74,0v-8.7a6.093,6.093,0,1,1,12.185,0v8.7a.871.871,0,0,0,.871.871Z" fill="#fef79c"/>
    </g>
    <g id="Shopping_Bag_2" data-name="Shopping Bag_2">
      <path id="Vector_16" d="M252.163,351.394H245.2l-.109-1.407h0l-1.632-21.221h6.963l1.6,20.855h0Z" fill="#b4ca44"/>
      <path id="Vector_17" d="M245.2,351.394h-22.63l1.741-22.629H243.46Z" fill="#c7dc5b"/>
      <path id="Vector_18" d="M234.756,345.3h-1.74a4.357,4.357,0,0,1-4.352-4.352v-6.963a.87.87,0,0,1,1.741,0v6.963a2.614,2.614,0,0,0,2.611,2.611h1.74a2.614,2.614,0,0,0,2.611-2.611v-6.963a.87.87,0,0,1,1.741,0v6.963a4.357,4.357,0,0,1-4.352,4.352Z" fill="#fff"/>
    </g>
    <path id="Shape_01" d="M109.459,203.464v20.27a4.977,4.977,0,0,0,.138,1.166l2.191,9.131a2,2,0,0,1-2.294,2.436l-8.971-1.589a5.033,5.033,0,0,0-.933-.077l-34.467.422a10,10,0,0,1-10.122-10v-21.76a10,10,0,0,1,10-10H99.459A10,10,0,0,1,109.459,203.464Z" fill="#fed883"/>
    <g id="Line">
      <path id="Vector_76" data-name="Vector 76" d="M259.125,306.821h44.357" fill="none" stroke="#fff" stroke-width="0.1"/>
      <path id="Vector_77" data-name="Vector 77" d="M243.929,333.929l.821,12.321" fill="none" stroke="#fff" stroke-width="0.1"/>
      <path id="Vector_78" data-name="Vector 78" d="M102.232,319.964l-.411,8.215" fill="none" stroke="#fff" stroke-width="0.1"/>
      <path id="Vector_79" data-name="Vector 79" d="M107.982,333.518l1.232,16.018" fill="none" stroke="#fff" stroke-width="0.1"/>
      <path id="Vector_80" data-name="Vector 80" d="M87.857,334.339l-1.232,14.786" fill="none" stroke="#fff" stroke-width="0.1"/>
      <path id="Vector_81" data-name="Vector 81" d="M285.411,317.5v25.054" fill="none" stroke="#fff" stroke-width="0.1"/>
      <path id="Vector_82" data-name="Vector 82" d="M275.964,288.75v13.964" fill="none" stroke="#fff" stroke-width="0.1"/>
    </g>
    <g id="Heals">
      <path id="Vector_19" d="M68.993,220.725c1.043-1.187,6.871-3.214,7.533-3.442a.418.418,0,0,1,.266,0,6.855,6.855,0,0,0,2.048.4,3.161,3.161,0,0,0,1.983-.581,4.73,4.73,0,0,0,1.274-1.916c.413-.943.851-1.884,1.276-2.794l.43-.925c.6-1.3,1.12-2.5,1.578-3.644a15.707,15.707,0,0,1,3.261-4.963,1.584,1.584,0,0,1,2.151-.11q.245.207.479.426A7.842,7.842,0,0,1,93.313,206a8.472,8.472,0,0,1,.157,4.078l-.007.06c-.153,1.231-.25,2.495-.335,3.61-.108,1.414-.19,2.846-.244,4.257l-.029.7c-.021.488-.043.981-.052,1.461,0,.255,0,.995,0,1.543v.519a.414.414,0,0,1-.414.414H90.733a.431.431,0,0,1-.414-.433c0-.337-.008-5.043,0-7.019,0-.229,0-.431.007-.615a6.486,6.486,0,0,0-.228-2.182,1.537,1.537,0,0,0-.493-.885.2.2,0,0,0-.179-.012c-.341.11-.642.628-.845.976a12.107,12.107,0,0,0-.795,1.7c-.011.028-.04.108-.084.231-1.411,3.861-2.445,6.148-3.073,6.8a4.828,4.828,0,0,1-3.451,1.443H75.953c-3.012-.036-6.689-.273-7.1-1.193A.656.656,0,0,1,68.993,220.725Z" fill="#b71c46"/>
    </g>
  </g>
</svg>
