<svg id="Phone_screen" xmlns="http://www.w3.org/2000/svg" width="375" height="33" viewBox="0 0 375 33">
  <rect id="Rectangle_2" data-name="Rectangle 2" width="375" height="33" fill="#fff"/>
  <g id="battery">
    <rect id="Rectangle_8" data-name="Rectangle 8" width="9.8" height="6.3" rx="1" transform="translate(325.8 13.8)" fill="#acbac3"/>
    <g id="Group">
      <path id="Vector" d="M323,12.887v8.039a1.889,1.889,0,0,0,1.887,1.887h14.6a1.889,1.889,0,0,0,1.887-1.887V12.887A1.889,1.889,0,0,0,339.488,11h-14.6A1.889,1.889,0,0,0,323,12.887Zm17.063,8.039a.575.575,0,0,1-.575.574h-14.6a.574.574,0,0,1-.574-.574V12.887a.574.574,0,0,1,.574-.574h14.6a.575.575,0,0,1,.575.574Z" fill="#acbac3"/>
      <path id="Vector_2" d="M340.063,14.281v5.25a.656.656,0,0,0,.656.656h1.8A1.478,1.478,0,0,0,344,18.711V15.1a1.478,1.478,0,0,0-1.477-1.477h-1.8A.656.656,0,0,0,340.063,14.281Zm1.312,4.594V14.938h1.148a.165.165,0,0,1,.165.164v3.609a.165.165,0,0,1-.165.164Z" fill="#acbac3"/>
    </g>
  </g>
  <g id="signal">
    <path id="signal_2" d="M303.7,22.111c.388,0,.7-.212.7-.473V10.473c0-.261-.315-.473-.7-.473s-.7.212-.7.473V21.638C303,21.9,303.315,22.111,303.7,22.111Zm2.074-.473V12.389c0-.261.315-.473.7-.473s.7.212.7.473v9.249c0,.261-.315.473-.7.473S305.777,21.9,305.777,21.638Zm2.778,0V14.281c0-.261.314-.473.7-.473s.7.212.7.473v7.356c0,.261-.315.473-.7.473S308.555,21.9,308.555,21.638Zm2.777,0V16.174c0-.261.315-.473.7-.473s.7.212.7.473v5.464c0,.261-.314.473-.7.473S311.332,21.9,311.332,21.638Zm2.777,0V18.066c0-.261.315-.473.7-.473s.7.212.7.473v3.572c0,.261-.315.473-.7.473S314.109,21.9,314.109,21.638Z" fill="#acbac3"/>
  </g>
  <text id="_8:26" data-name="8:26" transform="translate(29 19.03)" fill="#acbac3" font-size="12" font-family="SegoeUI, Segoe UI"><tspan x="0" y="0">8:26</tspan></text>
</svg>
